<svg width="216" height="356" viewBox="0 0 216 356" fill="none" xmlns="http://www.w3.org/2000/svg">
<path d="M94.9336 96.9141C94.9336 97.3047 94.7383 97.6302 94.3477 97.8906C94.0221 98.151 93.6315 98.4115 93.1758 98.6719C92.7852 98.9323 92.362 99.2253 91.9062 99.5508C91.5156 99.8763 91.2552 100.267 91.125 100.723H90.2461C89.8555 100.723 89.6602 100.853 89.6602 101.113H89.3672C88.7812 101.113 88.3906 100.951 88.1953 100.625C88 100.234 87.5768 100.039 86.9258 100.039C85.2982 100.039 83.6706 100.072 82.043 100.137C80.4805 100.137 78.8854 100.169 77.2578 100.234C72.7656 100.234 68.3385 100.397 63.9766 100.723C59.6797 100.983 55.4154 101.895 51.1836 103.457C51.0534 103.522 50.8906 103.555 50.6953 103.555C50.3698 103.555 50.1745 103.424 50.1094 103.164C50.1094 102.904 49.9466 102.773 49.6211 102.773C48.7096 102.773 47.8633 102.871 47.082 103.066C46.3008 103.262 45.4544 103.392 44.543 103.457C43.5013 104.368 42.2969 105.117 40.9297 105.703C39.6276 106.289 38.2604 106.875 36.8281 107.461C35.4609 107.982 34.1263 108.568 32.8242 109.219C31.5221 109.805 30.3828 110.586 29.4062 111.562C29.5365 112.344 29.6341 113.125 29.6992 113.906C29.8294 114.622 29.8945 115.339 29.8945 116.055C29.8945 118.854 29.6341 121.621 29.1133 124.355C28.5924 127.025 28.332 129.727 28.332 132.461V133.926C28.332 134.382 28.3646 134.87 28.4297 135.391C28.5599 135.716 28.7878 135.944 29.1133 136.074C29.5039 136.139 29.8294 136.27 30.0898 136.465C30.9362 135.879 31.7826 135.423 32.6289 135.098C33.5404 134.707 34.4518 134.349 35.3633 134.023C36.3398 133.633 37.2513 133.275 38.0977 132.949C39.0091 132.559 39.888 132.103 40.7344 131.582H43.4688C44.1849 131.061 45.0312 130.671 46.0078 130.41C46.9844 130.15 47.6354 129.564 47.9609 128.652C48.0911 128.783 48.2214 128.848 48.3516 128.848H48.7422C49.5234 128.848 50.3047 128.685 51.0859 128.359C51.9323 128.034 52.7786 127.708 53.625 127.383C54.4714 126.992 55.3177 126.634 56.1641 126.309C57.0104 125.983 57.8893 125.82 58.8008 125.82C58.9961 125.82 59.1589 125.853 59.2891 125.918C59.4844 125.918 59.6797 125.918 59.875 125.918C60.2656 125.267 60.819 124.779 61.5352 124.453C62.2513 124.062 63 123.737 63.7812 123.477C64.5625 123.216 65.3438 122.956 66.125 122.695C66.9714 122.435 67.6875 122.109 68.2734 121.719H68.6641C69.0547 121.719 69.3477 121.816 69.543 122.012C69.8034 122.142 70.0964 122.272 70.4219 122.402C72.2448 121.23 74.1003 120.645 75.9883 120.645C77.9414 120.579 79.9596 120.449 82.043 120.254C82.4987 121.035 82.8893 121.686 83.2148 122.207C83.6055 122.663 83.8008 123.346 83.8008 124.258C83.8008 124.714 83.7682 125.039 83.7031 125.234C82.987 125.495 82.4336 125.723 82.043 125.918L80.9688 126.504C80.6432 126.634 80.2526 126.764 79.7969 126.895C79.3411 126.96 78.6901 126.992 77.8438 126.992C77.3229 126.992 77.0951 127.155 77.1602 127.48C77.2253 127.741 77.0625 127.904 76.6719 127.969C75.7604 128.294 74.849 128.555 73.9375 128.75C73.026 128.945 72.1146 129.206 71.2031 129.531C69.3151 130.117 67.4271 130.768 65.5391 131.484C63.7161 132.135 61.8281 132.656 59.875 133.047C58.2474 134.349 56.4896 135.423 54.6016 136.27C52.7135 137.051 50.7604 137.702 48.7422 138.223C46.5938 139.785 44.4779 141.25 42.3945 142.617C40.3112 143.919 37.9674 145.026 35.3633 145.938C35.0378 146.263 34.6471 146.556 34.1914 146.816C33.7357 147.077 33.4427 147.467 33.3125 147.988C33.1823 147.988 33.0195 147.988 32.8242 147.988C32.694 147.923 32.5312 147.891 32.3359 147.891C31.4245 147.891 30.7083 148.118 30.1875 148.574C29.7318 148.965 29.1458 149.225 28.4297 149.355C28.1042 150.332 27.9414 151.178 27.9414 151.895C27.9414 152.806 28.1042 153.62 28.4297 154.336C28.7552 155.052 29.1458 155.736 29.6016 156.387C30.1224 157.038 30.6432 157.689 31.1641 158.34C31.75 158.926 32.2383 159.577 32.6289 160.293C32.4987 161.074 32.2383 161.693 31.8477 162.148C31.5221 162.669 31.1315 163.125 30.6758 163.516C30.2201 163.971 29.7643 164.427 29.3086 164.883C28.918 165.339 28.625 165.924 28.4297 166.641C27.2578 166.836 26.1185 166.934 25.0117 166.934C24.2956 166.934 23.5469 166.836 22.7656 166.641C22.0495 166.51 21.3659 166.25 20.7148 165.859C19.6732 164.427 18.9245 162.897 18.4688 161.27C18.0781 159.642 17.5247 158.014 16.8086 156.387L16.9062 155.703C16.9062 154.271 16.6458 153.034 16.125 151.992C15.6693 150.885 14.9531 149.779 13.9766 148.672C14.0417 148.542 14.0742 148.314 14.0742 147.988C14.0742 147.142 13.8138 146.361 13.293 145.645C13.4232 144.147 13.8138 142.975 14.4648 142.129C15.181 141.283 15.9622 140.339 16.8086 139.297V138.125C16.8086 135.326 17.0365 132.591 17.4922 129.922C18.013 127.188 18.2734 124.453 18.2734 121.719C18.2734 120.026 18.1432 118.529 17.8828 117.227C17.6875 117.161 17.4271 117.129 17.1016 117.129C16.776 117.129 16.5156 117.227 16.3203 117.422C16.125 117.552 15.9622 117.715 15.832 117.91C15.7018 118.105 15.5391 118.301 15.3438 118.496C15.2135 118.691 14.9857 118.822 14.6602 118.887C13.5534 118.691 12.8372 118.171 12.5117 117.324C12.1862 116.478 12.0234 115.534 12.0234 114.492C12.0234 113.906 12.056 113.32 12.1211 112.734C12.1862 112.148 12.2513 111.53 12.3164 110.879C14.7904 108.145 17.7526 105.605 21.2031 103.262C24.6536 100.918 28.0716 99.0299 31.457 97.5977C31.6523 97.5326 31.8802 97.5 32.1406 97.5C32.401 97.5 32.6289 97.5651 32.8242 97.6953C33.0195 97.7604 33.2474 97.793 33.5078 97.793C33.7031 97.793 33.8659 97.7279 33.9961 97.5977C34.6471 97.5977 35.1029 97.4023 35.3633 97.0117C35.6237 96.6211 35.9818 96.2305 36.4375 95.8398C36.8932 96.1654 37.2839 96.3281 37.6094 96.3281C38.2604 96.3281 38.9115 96.0352 39.5625 95.4492C40.2135 94.8633 40.9297 94.5052 41.7109 94.375C44.7057 93.8542 47.6354 93.431 50.5 93.1055C53.4297 92.7799 56.3268 92.0312 59.1914 90.8594C59.8424 91.1849 60.4935 91.3802 61.1445 91.4453C61.7956 91.5104 62.4466 91.543 63.0977 91.543C63.8138 91.543 64.5951 91.4779 65.4414 91.3477C66.3529 91.1523 67.069 90.7617 67.5898 90.1758C69.6732 90.4362 71.8867 90.5339 74.2305 90.4688C76.6393 90.4036 79.0156 90.4362 81.3594 90.5664C83.7682 90.6966 86.0794 91.0221 88.293 91.543C90.5065 92.0638 92.4596 93.0078 94.1523 94.375C94.2826 94.8307 94.4453 95.2539 94.6406 95.6445C94.8359 96.0352 94.9336 96.4583 94.9336 96.9141ZM214.074 143.008C213.944 143.984 213.586 144.733 213 145.254C212.479 145.775 211.861 146.263 211.145 146.719C210.819 146.654 210.493 146.621 210.168 146.621C209.908 146.556 209.615 146.523 209.289 146.523C207.271 146.458 205.35 146.719 203.527 147.305C201.77 147.891 199.947 148.314 198.059 148.574C197.408 148.704 196.789 148.77 196.203 148.77C195.682 148.704 195.129 148.737 194.543 148.867C192.46 149.193 190.246 149.453 187.902 149.648C185.559 149.844 183.215 150.104 180.871 150.43C178.527 150.69 176.216 151.048 173.938 151.504C171.724 151.895 169.641 152.48 167.688 153.262C167.492 153.132 167.297 153.001 167.102 152.871C166.906 152.676 166.678 152.578 166.418 152.578C165.767 152.578 165.148 152.676 164.562 152.871C163.977 153.066 163.391 153.132 162.805 153.066C162.154 153.457 161.438 153.75 160.656 153.945C159.94 154.076 159.191 154.206 158.41 154.336C157.694 154.401 156.978 154.531 156.262 154.727C155.546 154.922 154.862 155.28 154.211 155.801C153.69 155.54 153.039 155.41 152.258 155.41C151.542 155.345 151.053 155.085 150.793 154.629C149.296 155.345 147.701 155.801 146.008 155.996C144.38 156.191 142.72 156.257 141.027 156.191C139.921 156.126 138.651 155.964 137.219 155.703C135.786 155.443 134.354 155.085 132.922 154.629C131.49 154.108 130.155 153.522 128.918 152.871C127.681 152.155 126.737 151.309 126.086 150.332C125.63 149.681 125.305 148.965 125.109 148.184C124.914 147.402 124.458 146.816 123.742 146.426C123.938 144.928 124.165 143.464 124.426 142.031C124.686 140.599 124.947 139.134 125.207 137.637C126.509 136.53 127.746 135.358 128.918 134.121C130.09 132.884 131.197 131.582 132.238 130.215C133.475 129.629 134.615 128.913 135.656 128.066C136.763 127.22 137.837 126.374 138.879 125.527C139.986 124.616 141.06 123.737 142.102 122.891C143.208 122.044 144.38 121.296 145.617 120.645C145.812 120.189 146.073 119.831 146.398 119.57C146.789 119.245 147.18 118.952 147.57 118.691C147.961 118.366 148.319 118.04 148.645 117.715C148.97 117.324 149.198 116.868 149.328 116.348C151.607 114.98 153.592 113.255 155.285 111.172C156.978 109.089 158.085 106.745 158.605 104.141C157.499 103.229 156.229 102.643 154.797 102.383C153.43 102.057 151.997 101.829 150.5 101.699C149.198 101.634 147.831 101.634 146.398 101.699C145.031 101.764 143.632 101.732 142.199 101.602C140.767 102.057 139.27 102.35 137.707 102.48C136.21 102.611 134.712 102.741 133.215 102.871C131.717 102.936 130.22 103.132 128.723 103.457C127.29 103.717 125.891 104.238 124.523 105.02C124.263 105.02 124.003 104.987 123.742 104.922C123.547 104.857 123.319 104.824 123.059 104.824C120.975 104.759 119.022 105.182 117.199 106.094C115.376 106.94 113.586 107.786 111.828 108.633C111.698 108.893 111.633 109.089 111.633 109.219C111.633 109.609 111.698 110 111.828 110.391C112.023 110.716 112.121 111.074 112.121 111.465C112.056 111.53 112.023 111.595 112.023 111.66C112.023 111.725 111.991 111.79 111.926 111.855C111.861 112.181 111.763 112.474 111.633 112.734C111.568 112.995 111.47 113.288 111.34 113.613C110.624 115.697 110.233 117.747 110.168 119.766C110.103 121.458 110.103 123.118 110.168 124.746C110.233 126.374 110.233 128.034 110.168 129.727C110.038 131.81 109.712 133.763 109.191 135.586C109.517 137.148 109.81 138.809 110.07 140.566C110.331 142.259 110.656 143.952 111.047 145.645C111.438 147.337 111.893 148.997 112.414 150.625C113 152.188 113.749 153.685 114.66 155.117C114.595 155.247 114.628 155.345 114.758 155.41C114.888 155.475 115.018 155.508 115.148 155.508H115.93C116.255 155.508 116.385 155.638 116.32 155.898C116.451 156.094 116.548 156.289 116.613 156.484C116.678 156.615 116.809 156.745 117.004 156.875C117.134 157.07 117.134 157.331 117.004 157.656C116.939 158.958 116.613 160.163 116.027 161.27C115.441 162.376 115.083 163.581 114.953 164.883C114.172 165.078 113.456 165.176 112.805 165.176C111.698 165.111 110.721 164.785 109.875 164.199C109.029 163.678 108.247 163.027 107.531 162.246C106.815 161.465 106.132 160.684 105.48 159.902C104.829 159.056 104.113 158.34 103.332 157.754C102.876 155.931 102.421 153.913 101.965 151.699C101.574 149.486 100.891 147.598 99.9141 146.035C100.174 145.449 100.305 144.733 100.305 143.887C100.37 142.585 100.24 141.315 99.9141 140.078C99.6536 138.776 99.5885 137.474 99.7188 136.172C99.7188 135.456 99.7839 134.74 99.9141 134.023C100.109 133.307 100.24 132.591 100.305 131.875C100.37 130.768 100.24 129.694 99.9141 128.652C99.6536 127.611 99.556 126.536 99.6211 125.43C99.6862 124.909 99.7839 124.421 99.9141 123.965C100.109 123.444 100.37 122.988 100.695 122.598C100.37 121.816 100.272 121.068 100.402 120.352C100.467 119.245 100.598 118.203 100.793 117.227C100.988 116.25 101.118 115.273 101.184 114.297C101.184 113.776 101.151 113.288 101.086 112.832C101.021 112.311 100.923 111.823 100.793 111.367L99.9141 111.074C99.5234 111.074 99.1328 111.172 98.7422 111.367C98.4167 111.562 98.1237 111.79 97.8633 112.051C97.6029 112.311 97.375 112.539 97.1797 112.734C96.9844 112.865 96.7891 112.93 96.5938 112.93C96.4635 112.93 96.3008 112.93 96.1055 112.93C95.9753 112.865 95.8451 112.832 95.7148 112.832C95.5846 112.832 95.3242 112.962 94.9336 113.223C94.6081 113.483 94.1849 113.776 93.6641 114.102C93.2083 114.362 92.7526 114.655 92.2969 114.98C91.8411 115.241 91.4831 115.404 91.2227 115.469C90.5065 115.339 89.9206 115.111 89.4648 114.785C89.0742 114.395 88.6836 114.036 88.293 113.711C87.9674 113.32 87.6094 112.995 87.2188 112.734C86.8281 112.409 86.3398 112.279 85.7539 112.344C85.5586 111.953 85.4609 111.53 85.4609 111.074C85.3958 110.618 85.3958 110.163 85.4609 109.707V108.145C85.9167 107.298 86.5352 106.615 87.3164 106.094C88.0326 105.508 88.8138 105.02 89.6602 104.629L92.1992 103.457C93.0456 103.066 93.8268 102.578 94.543 101.992H95.4219C96.5938 102.057 97.6029 101.829 98.4492 101.309C99.3607 100.788 100.207 100.202 100.988 99.5508C101.77 98.8346 102.551 98.1185 103.332 97.4023C104.178 96.6862 105.09 96.1328 106.066 95.7422C106.783 96.0677 107.531 96.3607 108.312 96.6211C109.094 96.8164 109.908 96.9466 110.754 97.0117C111.6 97.0117 112.479 96.8815 113.391 96.6211C114.302 96.3607 115.018 95.8724 115.539 95.1562C115.865 95.2865 116.125 95.3841 116.32 95.4492C116.581 95.4492 116.874 95.4492 117.199 95.4492C118.176 95.5143 119.152 95.3841 120.129 95.0586C121.105 94.668 122.049 94.2122 122.961 93.6914C124.263 93.7565 125.533 93.6914 126.77 93.4961C128.072 93.2357 129.341 92.9753 130.578 92.7148C131.88 92.4544 133.15 92.2266 134.387 92.0312C135.689 91.7708 136.991 91.6732 138.293 91.7383C140.441 91.8034 142.557 91.6081 144.641 91.1523C146.724 90.6966 148.84 90.5339 150.988 90.6641C152.486 90.7292 153.951 90.8594 155.383 91.0547C156.88 91.1849 158.378 91.2174 159.875 91.1523C160.721 91.543 161.47 91.901 162.121 92.2266C162.837 92.487 163.716 92.5521 164.758 92.4219C166.841 94.1797 168.729 96.2305 170.422 98.5742V100.234C170.357 101.732 170.096 103.197 169.641 104.629C169.185 106.061 168.632 107.493 167.98 108.926C167.395 110.293 166.743 111.66 166.027 113.027C165.311 114.329 164.628 115.632 163.977 116.934C159.745 120.775 155.513 124.583 151.281 128.359C147.049 132.135 142.688 135.781 138.195 139.297C138.065 139.948 137.87 140.534 137.609 141.055C137.414 141.576 137.284 142.129 137.219 142.715C137.219 143.04 137.251 143.301 137.316 143.496C137.772 143.626 138.163 143.887 138.488 144.277C138.879 144.603 139.009 145.059 138.879 145.645H139.758C140.083 145.645 140.246 145.775 140.246 146.035L141.809 146.133C144.283 146.263 146.757 146.198 149.23 145.938C151.704 145.677 154.178 145.384 156.652 145.059C159.191 144.733 161.698 144.44 164.172 144.18C166.646 143.854 169.12 143.659 171.594 143.594C172.18 143.398 172.798 143.236 173.449 143.105C174.1 142.975 174.686 142.715 175.207 142.324H175.5C175.956 142.324 176.281 142.454 176.477 142.715C176.737 142.975 177.095 143.138 177.551 143.203C177.876 143.203 178.202 143.138 178.527 143.008C178.918 142.878 179.309 142.78 179.699 142.715C180.611 142.454 181.555 142.292 182.531 142.227C183.573 142.161 184.582 142.064 185.559 141.934C189.335 141.608 193.078 141.413 196.789 141.348C200.5 141.217 204.211 140.729 207.922 139.883C208.247 140.339 208.703 140.664 209.289 140.859C209.875 140.99 210.493 141.152 211.145 141.348C211.796 141.478 212.382 141.641 212.902 141.836C213.488 142.031 213.879 142.422 214.074 143.008Z" fill="#212121"/>
<path d="M120.066 259.086C120.066 258.695 120.262 258.37 120.652 258.109C120.978 257.849 121.368 257.589 121.824 257.328C122.215 257.068 122.638 256.775 123.094 256.449C123.484 256.124 123.745 255.733 123.875 255.277H124.754C125.145 255.277 125.34 255.147 125.34 254.887H125.633C126.219 254.887 126.609 255.049 126.805 255.375C127 255.766 127.423 255.961 128.074 255.961C129.702 255.961 131.329 255.928 132.957 255.863C134.52 255.863 136.115 255.831 137.742 255.766C142.234 255.766 146.661 255.603 151.023 255.277C155.32 255.017 159.585 254.105 163.816 252.543C163.947 252.478 164.109 252.445 164.305 252.445C164.63 252.445 164.826 252.576 164.891 252.836C164.891 253.096 165.053 253.227 165.379 253.227C166.29 253.227 167.137 253.129 167.918 252.934C168.699 252.738 169.546 252.608 170.457 252.543C171.499 251.632 172.703 250.883 174.07 250.297C175.372 249.711 176.74 249.125 178.172 248.539C179.539 248.018 180.874 247.432 182.176 246.781C183.478 246.195 184.617 245.414 185.594 244.438C185.464 243.656 185.366 242.875 185.301 242.094C185.171 241.378 185.105 240.661 185.105 239.945C185.105 237.146 185.366 234.379 185.887 231.645C186.408 228.975 186.668 226.273 186.668 223.539V222.074C186.668 221.618 186.635 221.13 186.57 220.609C186.44 220.284 186.212 220.056 185.887 219.926C185.496 219.861 185.171 219.73 184.91 219.535C184.064 220.121 183.217 220.577 182.371 220.902C181.46 221.293 180.548 221.651 179.637 221.977C178.66 222.367 177.749 222.725 176.902 223.051C175.991 223.441 175.112 223.897 174.266 224.418H171.531C170.815 224.939 169.969 225.329 168.992 225.59C168.016 225.85 167.365 226.436 167.039 227.348C166.909 227.217 166.779 227.152 166.648 227.152H166.258C165.477 227.152 164.695 227.315 163.914 227.641C163.068 227.966 162.221 228.292 161.375 228.617C160.529 229.008 159.682 229.366 158.836 229.691C157.99 230.017 157.111 230.18 156.199 230.18C156.004 230.18 155.841 230.147 155.711 230.082C155.516 230.082 155.32 230.082 155.125 230.082C154.734 230.733 154.181 231.221 153.465 231.547C152.749 231.938 152 232.263 151.219 232.523C150.438 232.784 149.656 233.044 148.875 233.305C148.029 233.565 147.312 233.891 146.727 234.281H146.336C145.945 234.281 145.652 234.184 145.457 233.988C145.197 233.858 144.904 233.728 144.578 233.598C142.755 234.77 140.9 235.355 139.012 235.355C137.059 235.421 135.04 235.551 132.957 235.746C132.501 234.965 132.111 234.314 131.785 233.793C131.395 233.337 131.199 232.654 131.199 231.742C131.199 231.286 131.232 230.961 131.297 230.766C132.013 230.505 132.566 230.277 132.957 230.082L134.031 229.496C134.357 229.366 134.747 229.236 135.203 229.105C135.659 229.04 136.31 229.008 137.156 229.008C137.677 229.008 137.905 228.845 137.84 228.52C137.775 228.259 137.938 228.096 138.328 228.031C139.24 227.706 140.151 227.445 141.062 227.25C141.974 227.055 142.885 226.794 143.797 226.469C145.685 225.883 147.573 225.232 149.461 224.516C151.284 223.865 153.172 223.344 155.125 222.953C156.753 221.651 158.51 220.577 160.398 219.73C162.286 218.949 164.24 218.298 166.258 217.777C168.406 216.215 170.522 214.75 172.605 213.383C174.689 212.081 177.033 210.974 179.637 210.062C179.962 209.737 180.353 209.444 180.809 209.184C181.264 208.923 181.557 208.533 181.688 208.012C181.818 208.012 181.98 208.012 182.176 208.012C182.306 208.077 182.469 208.109 182.664 208.109C183.576 208.109 184.292 207.882 184.812 207.426C185.268 207.035 185.854 206.775 186.57 206.645C186.896 205.668 187.059 204.822 187.059 204.105C187.059 203.194 186.896 202.38 186.57 201.664C186.245 200.948 185.854 200.264 185.398 199.613C184.878 198.962 184.357 198.311 183.836 197.66C183.25 197.074 182.762 196.423 182.371 195.707C182.501 194.926 182.762 194.307 183.152 193.852C183.478 193.331 183.868 192.875 184.324 192.484C184.78 192.029 185.236 191.573 185.691 191.117C186.082 190.661 186.375 190.076 186.57 189.359C187.742 189.164 188.882 189.066 189.988 189.066C190.704 189.066 191.453 189.164 192.234 189.359C192.951 189.49 193.634 189.75 194.285 190.141C195.327 191.573 196.076 193.103 196.531 194.73C196.922 196.358 197.475 197.986 198.191 199.613L198.094 200.297C198.094 201.729 198.354 202.966 198.875 204.008C199.331 205.115 200.047 206.221 201.023 207.328C200.958 207.458 200.926 207.686 200.926 208.012C200.926 208.858 201.186 209.639 201.707 210.355C201.577 211.853 201.186 213.025 200.535 213.871C199.819 214.717 199.038 215.661 198.191 216.703V217.875C198.191 220.674 197.964 223.409 197.508 226.078C196.987 228.812 196.727 231.547 196.727 234.281C196.727 235.974 196.857 237.471 197.117 238.773C197.312 238.839 197.573 238.871 197.898 238.871C198.224 238.871 198.484 238.773 198.68 238.578C198.875 238.448 199.038 238.285 199.168 238.09C199.298 237.895 199.461 237.699 199.656 237.504C199.786 237.309 200.014 237.178 200.34 237.113C201.447 237.309 202.163 237.829 202.488 238.676C202.814 239.522 202.977 240.466 202.977 241.508C202.977 242.094 202.944 242.68 202.879 243.266C202.814 243.852 202.749 244.47 202.684 245.121C200.21 247.855 197.247 250.395 193.797 252.738C190.346 255.082 186.928 256.97 183.543 258.402C183.348 258.467 183.12 258.5 182.859 258.5C182.599 258.5 182.371 258.435 182.176 258.305C181.98 258.24 181.753 258.207 181.492 258.207C181.297 258.207 181.134 258.272 181.004 258.402C180.353 258.402 179.897 258.598 179.637 258.988C179.376 259.379 179.018 259.77 178.562 260.16C178.107 259.835 177.716 259.672 177.391 259.672C176.74 259.672 176.089 259.965 175.438 260.551C174.786 261.137 174.07 261.495 173.289 261.625C170.294 262.146 167.365 262.569 164.5 262.895C161.57 263.22 158.673 263.969 155.809 265.141C155.158 264.815 154.507 264.62 153.855 264.555C153.204 264.49 152.553 264.457 151.902 264.457C151.186 264.457 150.405 264.522 149.559 264.652C148.647 264.848 147.931 265.238 147.41 265.824C145.327 265.564 143.113 265.466 140.77 265.531C138.361 265.596 135.984 265.564 133.641 265.434C131.232 265.303 128.921 264.978 126.707 264.457C124.493 263.936 122.54 262.992 120.848 261.625C120.717 261.169 120.555 260.746 120.359 260.355C120.164 259.965 120.066 259.542 120.066 259.086ZM0.925781 212.992C1.05599 212.016 1.41406 211.267 2 210.746C2.52083 210.225 3.13932 209.737 3.85547 209.281C4.18099 209.346 4.50651 209.379 4.83203 209.379C5.09245 209.444 5.38542 209.477 5.71094 209.477C7.72917 209.542 9.64974 209.281 11.4727 208.695C13.2305 208.109 15.0534 207.686 16.9414 207.426C17.5924 207.296 18.2109 207.23 18.7969 207.23C19.3177 207.296 19.8711 207.263 20.457 207.133C22.5404 206.807 24.7539 206.547 27.0977 206.352C29.4414 206.156 31.7852 205.896 34.1289 205.57C36.4727 205.31 38.7839 204.952 41.0625 204.496C43.276 204.105 45.3594 203.52 47.3125 202.738C47.5078 202.868 47.7031 202.999 47.8984 203.129C48.0938 203.324 48.3216 203.422 48.582 203.422C49.2331 203.422 49.8516 203.324 50.4375 203.129C51.0234 202.934 51.6094 202.868 52.1953 202.934C52.8464 202.543 53.5625 202.25 54.3438 202.055C55.0599 201.924 55.8086 201.794 56.5898 201.664C57.306 201.599 58.0221 201.469 58.7383 201.273C59.4544 201.078 60.138 200.72 60.7891 200.199C61.3099 200.46 61.9609 200.59 62.7422 200.59C63.4583 200.655 63.9466 200.915 64.207 201.371C65.7044 200.655 67.2995 200.199 68.9922 200.004C70.6198 199.809 72.2799 199.743 73.9727 199.809C75.0794 199.874 76.349 200.036 77.7812 200.297C79.2135 200.557 80.6458 200.915 82.0781 201.371C83.5104 201.892 84.8451 202.478 86.082 203.129C87.319 203.845 88.263 204.691 88.9141 205.668C89.3698 206.319 89.6953 207.035 89.8906 207.816C90.0859 208.598 90.5417 209.184 91.2578 209.574C91.0625 211.072 90.8346 212.536 90.5742 213.969C90.3138 215.401 90.0534 216.866 89.793 218.363C88.4909 219.47 87.2539 220.642 86.082 221.879C84.9102 223.116 83.8034 224.418 82.7617 225.785C81.5247 226.371 80.3854 227.087 79.3438 227.934C78.237 228.78 77.1628 229.626 76.1211 230.473C75.0143 231.384 73.9401 232.263 72.8984 233.109C71.7917 233.956 70.6198 234.704 69.3828 235.355C69.1875 235.811 68.9271 236.169 68.6016 236.43C68.2109 236.755 67.8203 237.048 67.4297 237.309C67.0391 237.634 66.681 237.96 66.3555 238.285C66.0299 238.676 65.8021 239.132 65.6719 239.652C63.3932 241.02 61.4076 242.745 59.7148 244.828C58.0221 246.911 56.9154 249.255 56.3945 251.859C57.5013 252.771 58.7708 253.357 60.2031 253.617C61.5703 253.943 63.0026 254.171 64.5 254.301C65.8021 254.366 67.1693 254.366 68.6016 254.301C69.9688 254.236 71.3685 254.268 72.8008 254.398C74.2331 253.943 75.7305 253.65 77.293 253.52C78.7904 253.389 80.2878 253.259 81.7852 253.129C83.2826 253.064 84.7799 252.868 86.2773 252.543C87.7096 252.283 89.1094 251.762 90.4766 250.98C90.737 250.98 90.9974 251.013 91.2578 251.078C91.4531 251.143 91.681 251.176 91.9414 251.176C94.0247 251.241 95.9779 250.818 97.8008 249.906C99.6237 249.06 101.414 248.214 103.172 247.367C103.302 247.107 103.367 246.911 103.367 246.781C103.367 246.391 103.302 246 103.172 245.609C102.977 245.284 102.879 244.926 102.879 244.535C102.944 244.47 102.977 244.405 102.977 244.34C102.977 244.275 103.009 244.21 103.074 244.145C103.139 243.819 103.237 243.526 103.367 243.266C103.432 243.005 103.53 242.712 103.66 242.387C104.376 240.303 104.767 238.253 104.832 236.234C104.897 234.542 104.897 232.882 104.832 231.254C104.767 229.626 104.767 227.966 104.832 226.273C104.962 224.19 105.288 222.237 105.809 220.414C105.483 218.852 105.19 217.191 104.93 215.434C104.669 213.741 104.344 212.048 103.953 210.355C103.562 208.663 103.107 207.003 102.586 205.375C102 203.812 101.251 202.315 100.34 200.883C100.405 200.753 100.372 200.655 100.242 200.59C100.112 200.525 99.9818 200.492 99.8516 200.492H99.0703C98.7448 200.492 98.6146 200.362 98.6797 200.102C98.5495 199.906 98.4518 199.711 98.3867 199.516C98.3216 199.385 98.1914 199.255 97.9961 199.125C97.8659 198.93 97.8659 198.669 97.9961 198.344C98.0612 197.042 98.3867 195.837 98.9727 194.73C99.5586 193.624 99.9167 192.419 100.047 191.117C100.828 190.922 101.544 190.824 102.195 190.824C103.302 190.889 104.279 191.215 105.125 191.801C105.971 192.322 106.753 192.973 107.469 193.754C108.185 194.535 108.868 195.316 109.52 196.098C110.171 196.944 110.887 197.66 111.668 198.246C112.124 200.069 112.579 202.087 113.035 204.301C113.426 206.514 114.109 208.402 115.086 209.965C114.826 210.551 114.695 211.267 114.695 212.113C114.63 213.415 114.76 214.685 115.086 215.922C115.346 217.224 115.411 218.526 115.281 219.828C115.281 220.544 115.216 221.26 115.086 221.977C114.891 222.693 114.76 223.409 114.695 224.125C114.63 225.232 114.76 226.306 115.086 227.348C115.346 228.389 115.444 229.464 115.379 230.57C115.314 231.091 115.216 231.579 115.086 232.035C114.891 232.556 114.63 233.012 114.305 233.402C114.63 234.184 114.728 234.932 114.598 235.648C114.533 236.755 114.402 237.797 114.207 238.773C114.012 239.75 113.882 240.727 113.816 241.703C113.816 242.224 113.849 242.712 113.914 243.168C113.979 243.689 114.077 244.177 114.207 244.633L115.086 244.926C115.477 244.926 115.867 244.828 116.258 244.633C116.583 244.438 116.876 244.21 117.137 243.949C117.397 243.689 117.625 243.461 117.82 243.266C118.016 243.135 118.211 243.07 118.406 243.07C118.536 243.07 118.699 243.07 118.895 243.07C119.025 243.135 119.155 243.168 119.285 243.168C119.415 243.168 119.676 243.038 120.066 242.777C120.392 242.517 120.815 242.224 121.336 241.898C121.792 241.638 122.247 241.345 122.703 241.02C123.159 240.759 123.517 240.596 123.777 240.531C124.493 240.661 125.079 240.889 125.535 241.215C125.926 241.605 126.316 241.964 126.707 242.289C127.033 242.68 127.391 243.005 127.781 243.266C128.172 243.591 128.66 243.721 129.246 243.656C129.441 244.047 129.539 244.47 129.539 244.926C129.604 245.382 129.604 245.837 129.539 246.293V247.855C129.083 248.702 128.465 249.385 127.684 249.906C126.967 250.492 126.186 250.98 125.34 251.371L122.801 252.543C121.954 252.934 121.173 253.422 120.457 254.008H119.578C118.406 253.943 117.397 254.171 116.551 254.691C115.639 255.212 114.793 255.798 114.012 256.449C113.23 257.165 112.449 257.882 111.668 258.598C110.822 259.314 109.91 259.867 108.934 260.258C108.217 259.932 107.469 259.639 106.688 259.379C105.906 259.184 105.092 259.053 104.246 258.988C103.4 258.988 102.521 259.118 101.609 259.379C100.698 259.639 99.9818 260.128 99.4609 260.844C99.1354 260.714 98.875 260.616 98.6797 260.551C98.4193 260.551 98.1263 260.551 97.8008 260.551C96.8242 260.486 95.8477 260.616 94.8711 260.941C93.8945 261.332 92.9505 261.788 92.0391 262.309C90.737 262.243 89.4674 262.309 88.2305 262.504C86.9284 262.764 85.6589 263.025 84.4219 263.285C83.1198 263.546 81.8503 263.773 80.6133 263.969C79.3112 264.229 78.0091 264.327 76.707 264.262C74.5586 264.197 72.4427 264.392 70.3594 264.848C68.276 265.303 66.1602 265.466 64.0117 265.336C62.5143 265.271 61.0495 265.141 59.6172 264.945C58.1198 264.815 56.6224 264.783 55.125 264.848C54.2786 264.457 53.5299 264.099 52.8789 263.773C52.1628 263.513 51.2839 263.448 50.2422 263.578C48.1589 261.82 46.2708 259.77 44.5781 257.426V255.766C44.6432 254.268 44.9036 252.803 45.3594 251.371C45.8151 249.939 46.3685 248.507 47.0195 247.074C47.6055 245.707 48.2565 244.34 48.9727 242.973C49.6888 241.671 50.3724 240.368 51.0234 239.066C55.2552 235.225 59.487 231.417 63.7188 227.641C67.9505 223.865 72.3125 220.219 76.8047 216.703C76.9349 216.052 77.1302 215.466 77.3906 214.945C77.5859 214.424 77.7161 213.871 77.7812 213.285C77.7812 212.96 77.7487 212.699 77.6836 212.504C77.2279 212.374 76.8372 212.113 76.5117 211.723C76.1211 211.397 75.9909 210.941 76.1211 210.355H75.2422C74.9167 210.355 74.7539 210.225 74.7539 209.965L73.1914 209.867C70.7174 209.737 68.2435 209.802 65.7695 210.062C63.2956 210.323 60.8216 210.616 58.3477 210.941C55.8086 211.267 53.3021 211.56 50.8281 211.82C48.3542 212.146 45.8802 212.341 43.4062 212.406C42.8203 212.602 42.2018 212.764 41.5508 212.895C40.8997 213.025 40.3138 213.285 39.793 213.676H39.5C39.0443 213.676 38.7188 213.546 38.5234 213.285C38.263 213.025 37.9049 212.862 37.4492 212.797C37.1237 212.797 36.7982 212.862 36.4727 212.992C36.082 213.122 35.6914 213.22 35.3008 213.285C34.3893 213.546 33.4453 213.708 32.4688 213.773C31.4271 213.839 30.418 213.936 29.4414 214.066C25.6654 214.392 21.9219 214.587 18.2109 214.652C14.5 214.783 10.7891 215.271 7.07812 216.117C6.7526 215.661 6.29688 215.336 5.71094 215.141C5.125 215.01 4.50651 214.848 3.85547 214.652C3.20443 214.522 2.61849 214.359 2.09766 214.164C1.51172 213.969 1.12109 213.578 0.925781 212.992Z" fill="#212121"/>
</svg>
